<?xml version="1.0" encoding="UTF-8"?>
<svg xmlns="http://www.w3.org/2000/svg" viewBox="0 0 527.68 333.43">
  <defs>
    <style>
      .cls-1, .cls-2 {
        fill: #000;
      }

      .cls-1, .cls-3 {
        stroke: #000;
        stroke-miterlimit: 10;
      }

      .cls-2, .cls-4 {
        stroke-width: 0px;
      }

      .cls-3 {
        fill: #d40000;
        stroke-width: 2px;
      }

      .cls-4 {
        fill: #fff;
      }
    </style>
  </defs>
  <g id="pill_body" data-name="pill body">
    <g>
      <path class="cls-4" d="M95.5,9.59c-16.76,7.93-26.55,20.83-32,28-6.67,8.78-11.03,17.53-12.57,20.67-3.3,6.7-5.12,11.78-7.43,18.33-5.54,15.68-8.41,28.42-10.7,38.72,0,0,0,0,0,0,0,0-2.38,10.9-4.34,22.05-1.3,7.39-5.32,36.34-7.96,76.23-5.51,46.08,14.58,88.75,49.66,107.12,27.49,14.4,55.33,9.25,65.34,6.88,6.65-1.61,17.13-4.86,28-12,29.18-19.15,40.13-57.78,57.79-136.03,8.43-37.36,10.34-62.23,10.78-76.74.13-4.32.15-7.82.14-9.82,0,0,0-.78,0-1.41-.28-39.17-27.7-64-27.7-64-9.12-8.26-17.94-12.29-24-15-16.79-7.51-31.21-8.52-39-9-14.54-.89-29.51-1.81-46,6Z"/>
      <path class="cls-2" d="M93.99,7c-13.68,6.54-24.06,17.14-33.08,29.08-10.61,14.04-17.34,30.18-22.71,46.84-7.8,24.21-12.51,49.5-15.55,74.72-2.07,17.12-3.64,34.3-4.85,51.5-.62,8.77-1.5,17.4-1.03,26.21.43,8.03,1.62,16.04,3.62,23.83,7.86,30.7,28.81,57.9,59.12,68.91,15.37,5.59,32.08,6.52,48.17,4.07,13.82-2.1,27.39-7.02,38.9-15.04,17.18-11.97,27.09-30.68,34.28-49.86,5.06-13.49,8.93-27.41,12.51-41.35,4.71-18.33,9.07-36.8,12.92-55.33,3.29-15.85,5.93-31.87,7.49-47.99.52-5.37.91-10.76,1.15-16.15.3-6.83.55-13.74.04-20.56-1.12-14.84-6.01-29.2-13.76-41.88-3.98-6.52-8.68-12.9-14.23-18.19-4.86-4.62-10.55-8.51-16.45-11.69-7.49-4.04-15.49-7.35-23.7-9.61-7.2-1.98-14.6-3.13-22.03-3.69-7.86-.59-15.81-1.1-23.69-.62-9.45.58-18.54,2.79-27.13,6.81-1.47.69-1.84,2.8-1.08,4.1.88,1.5,2.63,1.77,4.1,1.08,8.42-3.94,17.51-5.81,26.76-6.11,7.45-.24,14.96.22,22.38.85,15.26,1.29,30.18,5.9,43.46,13.55,7.43,4.28,13.69,9.53,19.07,16.12,1.49,1.82,2.49,3.15,4.01,5.33s3.06,4.59,4.45,6.97c3.32,5.71,6.06,11.74,8.07,18.04,2.33,7.31,3.7,14.89,3.95,22.56.2,6.2,0,12.43-.31,18.62-.61,12.41-2.03,24.78-3.97,37.05-2.95,18.69-7.21,37.12-11.53,55.53-3.65,15.54-7.44,31.07-12.06,46.36-3.49,11.56-7.39,22.95-12.65,33.65-2.22,4.52-4.7,8.92-7.52,13.09-2.6,3.84-4.96,6.81-8.35,10.28-1.51,1.54-3.09,3.02-4.73,4.42-.41.35-.82.69-1.24,1.03-.21.17-.42.34-.63.5-.7.55.47-.35-.24.19-.86.65-1.73,1.28-2.61,1.9-6.82,4.71-14.36,8.33-22.25,10.83-11.56,3.66-23.49,5.08-35.6,4.37-16.78-.98-33.24-6.85-46.45-17.33-11.31-8.98-20.12-20.68-26.23-33.73-6.48-13.83-9.77-29.14-10.16-44.38-.23-8.86.79-17.65,1.44-26.47.68-9.23,1.47-18.44,2.38-27.65.7-7.09,1.47-14.17,2.34-21.25.62-5.11,1.12-8.99,1.87-14,1.69-11.27,4.08-22.46,6.65-33.57,1.95-8.42,4.19-16.77,6.86-25s5.7-16.81,9.64-24.76c6.2-12.49,13.95-23.87,23.88-33.49,5.69-5.51,12.16-10.08,19.31-13.5,1.46-.7,1.85-2.79,1.08-4.1-.87-1.49-2.64-1.78-4.1-1.08Z"/>
    </g>
    <path class="cls-3" d="M26.5,161.59c.32-10.07-.07-21.7,2-22,.45-.07.87.43,1.12.73,5.21,6.32,10.73,15.39,15.38,20.77.4.46-.06-.09,7,7,6.04,6.07,5.94,6.03,7,7,1.2,1.1,5.59,5.04,12,9,0,0,5.13,3.16,11.08,5.72,12.78,5.49,70.07,23,109.01,9.87,9.82-3.31,15.43-5.2,19.64-10.85,1.63-2.19,10.39-14.77,11.89-14.84.23-.01.94-.04.98.13.01.05-.04.1-.05.11-3.28,3.44-7.06,22.37-7.06,22.37-5.3,25.83-11.34,45.56-16,59-2.88,8.33-5.43,14.78-9,22-4,8.08-10.67,21.54-20,31-19.92,20.18-49.96,20.04-58,20-6.71-.03-41.33-.92-67-28-16.19-17.08-20.95-36.27-23-45-4.7-20.01-2.72-38.93,0-65,1.33-12.69,2.61-16.61,3-29Z"/>
  </g>
  <g id="face">
    <path class="cls-2" d="M91.44,123.45c23.21,7.47,48.09,9.05,72.09,4.79,5.41-.96,10.77-2.23,16.04-3.79,2-.59,3.47-2.84,2.79-4.92s-2.77-3.43-4.92-2.79c-4.54,1.35-9.15,2.48-13.8,3.38-1.25.24-2.51.47-3.76.68-.65.11-1.3.21-1.95.31-.4.06-.8.12-1.2.18-.01,0-1.28.18-.56.08-3.06.41-6.13.71-9.21.92-6.68.45-13.38.44-20.06-.03-6.3-.44-11.29-1.12-17.5-2.38-5.35-1.08-10.63-2.47-15.83-4.14-1.99-.64-4.45.75-4.92,2.79-.5,2.19.66,4.23,2.79,4.92h0Z"/>
    <circle class="cls-1" cx="67.5" cy="91.59" r="6"/>
    <circle class="cls-1" cx="206.5" cy="103.59" r="6"/>
  </g>
  <g id="limbs">
    <path class="cls-2" d="M37.89,191.74c17.92,27.61,46.75,47.13,79.13,53.24,3.77.71,5.39-5.07,1.6-5.79-30.87-5.82-58.43-24.11-75.55-50.48-2.09-3.23-7.29-.22-5.18,3.03h0Z"/>
    <path class="cls-2" d="M122.09,239.86c.44-3.31,4.04-8.52,7.71-9.02l-3.69-3.69c-1.6,4.85-5.47,8.12-9.35,11.2-2.79,2.21.76,6.18,3.64,4.71.85-.43,6.99-1.97,7.39.02l.77-2.92c-.73.77-8.68-.43-9.69-.47-3.31-.16-4.18,5.37-.8,5.89s7.31,1.36,8.5,5.06l3.69-3.69c-3.6-1.45-6.48-5.89-10.27-6.58-2.31-.42-4.17,1.34-3.69,3.69l.03.15c.34,1.66,2.19,2.4,3.69,2.1l.11-.02c3.78-.76,2.18-6.55-1.6-5.79l-.11.02,3.69,2.1-.03-.15-3.69,3.69c1.61.29,4.32,3.08,5.61,3.99,1.52,1.07,2.93,1.9,4.65,2.59,2.13.86,4.34-1.67,3.69-3.69-1.88-5.84-6.92-8.36-12.69-9.25l-.8,5.89c3.16.15,17.19,2.5,14.56-4.91-2.12-6-11.73-5.11-16.06-2.9l3.64,4.71c4.8-3.81,8.93-7.91,10.89-13.85.8-2.42-1.61-3.97-3.69-3.69-6.52.89-11.33,8.91-12.12,14.81-.51,3.82,5.5,3.78,6,0h0Z"/>
    <path class="cls-2" d="M221.32,177.69c4.78,4.98,16.16,1.3,21.52-.91,7.95-3.28,14.66-8.71,21.18-14.19l-4.71-.61.23.31.47-3.64,1.24-.49,2.89,2.2c-.09,1.03.26.71,1.03-.94.9-1.19,1.86-2.34,2.86-3.44,1.57-1.74,3.25-3.33,5-4.88l-4.71-3.64c-2.39,4.8-4.78,9.6-7.16,14.4-1.43,2.87,2.34,6.36,4.71,3.64,3.01-3.46,7.35-4.01,11.13-1.44l.72-5.48c-4.3,1.02-8.46,1.36-12.87,1.13-3.36-.18-4.1,5.15-.8,5.89,2.97.67,5.74,1.66,8.33,3.29.6.38,6.84,4.94,6.49,5.57l2.59-1.49c-2.49.3-6.23-3.44-8.25-4.84-2.87-1.99-5.68-4.07-8.45-6.2-3.06-2.35-6.05,2.86-3.03,5.18,3.19,2.46,20.98,18.55,23.13,8.75.83-3.78-3.28-7.39-5.79-9.49-3.9-3.28-8.48-5.43-13.43-6.55l-.8,5.89c4.91.26,9.69-.21,14.47-1.35,2.67-.63,2.74-4.11.72-5.48-5.85-3.98-13.75-2.96-18.4,2.38l4.71,3.64c2.39-4.8,4.78-9.6,7.16-14.4,1.52-3.06-2.12-5.94-4.71-3.64-3.75,3.34-11.42,9.44-10.42,15.11.24,1.38,1.66,2.08,2.89,2.2s2.2-.3,3-1.26,1.31-2.52.47-3.64l-.23-.31c-1.23-1.63-3.11-1.96-4.71-.61-4.84,4.07-9.78,8.08-15.37,11.08-2.82,1.51-5.77,2.71-8.87,3.49-1.71.43-8.44,2.12-9.97.53-2.68-2.79-6.92,1.45-4.24,4.24h0Z"/>
    <path class="cls-2" d="M256,71.47c1.92,39.11,3.84,78.27,8.86,117.13,4.69,36.37,14.67,74.95-.06,110.33-1.48,3.56,4.32,5.11,5.79,1.6,14.7-35.3,5.32-73.67.53-109.98-5.22-39.49-7.16-79.32-9.11-119.07-.19-3.84-6.19-3.87-6,0h0Z"/>
    <g>
      <path class="cls-4" d="M260.5,80.59c2.52-2.06,6.14-4.63,10.87-6.85,1.53-.72,5.81-2.6,12.05-3.94,10.17-2.19,21.21-3.09,30.63,1.34,4.27,2.01,7.98,5,12.06,7.37,4.53,2.63,9.48,4.46,14.49,5.99,5.37,1.64,10.84,2.96,16.36,3.94,3.85.68,7.83,1.2,11.64.3,4.81-1.13,8.79-4.38,12.59-7.54,4.7-3.9,9.41-7.81,14.11-11.71.85,23.3,2.63,46.57,5.35,69.72.03.28.12.63.4.68.28.06.33-.54.07-.42-2.99,2.09-5.81,4.42-8.81,6.51-8.36,5.83-18.15,9.73-28.3,10.64-10.15.91-20.65-1.25-29.32-6.62-3.17-1.96-6.07-4.32-9.18-6.37-17.93-11.82-42.89-11.84-60.84-.05-1.63-13.99-3.26-27.98-4.89-41.97-.68-5.82-1.36-11.66-1.2-17.51.3-.84.6-1.68.91-2.52"/>
      <path class="cls-2" d="M262.62,82.71c8.89-7.11,19.9-10.59,31.17-11.52,7-.58,14.02.05,20.32,3.34,5.88,3.06,10.92,7.22,17.1,9.8s12.24,4.28,18.54,5.71c5.66,1.28,11.79,2.75,17.61,1.96,5.42-.74,9.85-3.74,14.03-7.09,5.42-4.33,10.69-8.85,16.03-13.29l-5.12-2.12c.5,13.27,1.27,26.52,2.36,39.76.53,6.45,1.13,12.9,1.81,19.35.34,3.22.63,6.45,1.07,9.66.2,1.48.2,2.72,1.39,3.77s3.03,1.19,4.24,0l.24-.23c1.22-1.2,1.05-3.02,0-4.24l-.16-.19c-.79-.92-2.62-1.19-3.64-.47-11.32,8.12-22.03,15.74-36.44,16.81-6.8.5-13.69-.39-20.07-2.84s-11.53-7.03-17.35-10.63c-18.88-11.67-43.97-11.05-62.58.77l4.51,2.59c-1.18-10.17-2.37-20.35-3.55-30.52-.59-5.11-1.23-10.21-1.78-15.33s-1.66-10.62.05-15.36c1.31-3.64-4.49-5.21-5.79-1.6-1.63,4.54-1,9.28-.56,14.03.51,5.45,1.22,10.89,1.85,16.34,1.26,10.81,2.52,21.62,3.78,32.43.25,2.11,2.4,3.93,4.51,2.59,10.23-6.5,22.2-9.31,34.27-8.16,6.3.6,12.58,2.33,18.24,5.16s10.42,7.16,15.94,10.3c10.09,5.73,22.15,7.46,33.54,5.64,13.49-2.16,23.63-9.28,34.46-17.04l-3.64-.47.16.19v-4.24l-.24.23h4.24c-.47-.41-.37-6.04-.5-7.25-.31-2.9-.61-5.8-.89-8.7-.56-5.8-1.07-11.61-1.51-17.42-.89-11.62-1.54-23.27-1.97-34.92-.1-2.74-3.14-3.77-5.12-2.12-5.13,4.25-10.2,8.58-15.38,12.76-6.35,5.13-11.96,6.78-20.04,5.41-6.66-1.13-13.3-2.82-19.69-5.01-6.91-2.37-12.47-6.1-18.64-9.86-18.46-11.24-44.94-5.1-61.05,7.79-3.01,2.41,1.26,6.63,4.24,4.24h0Z"/>
    </g>
    <path class="cls-2" d="M282.43,71.49c-.18,11.42,2.12,22.73,2.93,34.1.39,5.5.68,11,1.24,16.48.38,3.79.14,10.22,2.31,13.41,1.07,1.57,3.28,2.06,4.71.61l.13-.14c1.21-1.22,1.05-2.99,0-4.24l-.09-.11c-2.48-2.96-6.71,1.3-4.24,4.24l.09.11v-4.24l-.13.14,4.71.61c-1.28-1.87-1.04-6.27-1.28-8.45-.29-2.57-.51-5.16-.7-7.74-.37-4.85-.63-9.71-1.03-14.56-.84-10.09-2.79-20.07-2.63-30.22.06-3.86-5.94-3.86-6,0h0Z"/>
    <path class="cls-2" d="M319.06,76.72c-.44,11.66-.88,23.33-.54,35,.16,5.55.51,11.09,1.04,16.61.38,3.99.05,11.17,2.24,14.62.98,1.54,3.38,2.1,4.71.61l.15-.17c1.07-1.2,1.21-3.05,0-4.24l-.12-.12c-2.75-2.71-7,1.53-4.24,4.24l.12.12v-4.24l-.15.17,4.71.61c-1.22-1.92-.87-6.33-1.12-8.67-.28-2.6-.52-5.2-.72-7.81-.4-5.2-.62-10.41-.7-15.62-.16-10.38.23-20.75.62-31.12.14-3.86-5.86-3.86-6,0h0Z"/>
    <path class="cls-2" d="M347.42,88.04c-.14,11.86-.2,23.73-.16,35.59.04,10.64-.84,21.92,2.21,32.25.6,2.03,2.64,2.57,4.41,1.79l.58-.25c3.53-1.54.48-6.71-3.03-5.18l-.58.25,4.41,1.79c-3.05-10.34-1.97-21.95-2-32.63-.03-11.2.03-22.41.16-33.61.05-3.86-5.95-3.86-6,0h0Z"/>
    <path class="cls-2" d="M367.87,87.79c.03,22.12,1.73,44.16,5,66.04.57,3.81,6.35,2.19,5.79-1.6-3.2-21.34-4.76-42.87-4.79-64.45,0-3.86-6-3.87-6,0h0Z"/>
    <path class="cls-2" d="M262.29,116.73c10.75-6.73,23.36-12.63,36.12-13.94s24.12,5.49,34.99,11.56c9.79,5.48,20.83,10.89,32.38,9.83,5.55-.51,10.46-2.7,15.48-4.97,5.93-2.69,11.72-5.53,17.03-9.34,3.11-2.23.12-7.44-3.03-5.18-5.06,3.64-10.56,6.4-16.22,8.98-6.3,2.87-12.24,5.26-19.32,4.48-13.02-1.42-23.86-9.89-35.29-15.5-10.01-4.91-20.12-7.22-31.21-5.09-12.02,2.31-23.63,7.52-33.96,13.99-3.26,2.05-.26,7.24,3.03,5.18h0Z"/>
    <path class="cls-2" d="M284.74,101.91l.21-.05c1.57-.38,2.52-2.16,2.1-3.69l-.08-.3c-.41-1.47-2.16-2.65-3.69-2.1-1.3.47-2.82,2.62-3.99,2.77l2.89,3.8c1.49-5.04,4.66-8.86,1.91-14.1-1.02-1.94-4.17-1.97-5.18,0-1.54,2.99-2.38,12.53-6.91,12.45l2.59,4.51c4.78-7.32,11.43-13.25,9.63-22.75-.42-2.19-3.57-2.92-5.01-1.32-6.35,7.01-3.92,19.55-13.8,23.77l4.51,2.59c-.04-4.04,3.75-7,6.02-9.97,1.94-2.52,3.67-5.19,5.16-8.01,2.39-4.55,4.73-9.27,2.47-14.26-1.04-2.29-3.98-1.58-5.18,0-3,3.96-4.42,8.55-6.08,13.17-.59,1.65-5.91,16.65-8.34,16.06l2.1,2.1c-1.08-3.5-.8-7.77-1.11-11.41-.17-2.05-1.65-7.91-.78-9.64s6.6-3.64,8.47-4.59c3.4-1.73,6.84-3.39,10.29-5.01l-3.03-5.18c-4.09,2.91-6.78,6.64-8.8,11.23-1.14,2.59-2.01,5.27-3.01,7.92-.6,1.6-1.17,3.24-2,4.74-.52.94-2.94,2.93-1.26,3.31l2.1,2.1c-.84-2.91,2.28-7.41,3.33-9.87s1.76-4.96,1.96-7.75c.14-1.93-2.03-3.43-3.8-2.89-4.63,1.42-4.56,5.12-6.4,8.97l5.48.72.19-3.72-5.48-.72.15-.76c-1.75,3.43,3.43,6.47,5.18,3.03.73-1.44.89-2.32.45-3.87-.64-2.25-4.42-3.21-5.48-.72-1.26,2.94-1.57,5.21-.8,8.34.59,2.38,4.35,3.07,5.48.72.63-1.3,1.38-5.77,2.82-6.21l-3.8-2.89c-.45,6.38-7,12.56-5.08,19.21.28.97,1.08,1.87,2.1,2.1,4.64,1.03,7.48-4.71,9.02-8.18,2.99-6.76,4.27-15.06,10.67-19.62,3.15-2.24.49-6.83-3.03-5.18-4.61,2.16-9.17,4.4-13.68,6.76-2.59,1.35-6.61,2.6-7.77,5.6-1.31,3.39.2,8.56.5,12.07.32,3.75-.33,9.6,1.32,13.01,3.49,7.23,10.51-2.18,12.33-5.53,4.22-7.76,5.62-17.34,10.96-24.37h-5.18c1.97,4.33-5.82,14-8.32,17.06-3.07,3.76-6.19,7.03-6.14,12.15.02,2.48,2.48,3.46,4.51,2.59,4.17-1.78,7.1-5.17,9.06-9.2,2.24-4.63,2.48-11.67,5.96-15.51l-5.01-1.32c1.34,7.07-5.51,12.74-9.03,18.13-1.28,1.96.42,4.47,2.59,4.51,9.42.17,8.88-9.2,12.09-15.42h-5.18c1.41,2.68-1.74,6.87-2.51,9.48-.5,1.68.94,4.05,2.89,3.8,1.63-.21,3.01-.46,4.4-1.42.59-.41,1.01-.82,1.49-1.34,1.12-1.22,1.16-.75-.31-.22l-3.69-2.1.08.3,2.1-3.69-.21.05c-3.75.91-2.16,6.7,1.6,5.79h0Z"/>
    <path class="cls-2" d="M295.97,104.68l-.07-.21-2.1,3.69.31-.08-3.8-2.89c-.15-1.43-.56.43-.6,1.01-.06.92-.04,1.49.32,2.39.48,1.19,1.48,2.28,2.89,2.2,3.23-.17,5.8-3.43,8.14-5.39l-4.71-3.64c-2.34,4.98-5.89,7.96-5.05,13.83.44,3.07,5.05,2.63,5.79,0,1.3-4.67,4.15-7.88,8.5-9.94l-3.64-4.71c-5.46,5.65-9.22,12.37-11.11,20l5.48-.72c-2.46-3.45,9.5-12.96,11.33-15.22l-4.71-3.64c-2.22,5.22-4.47,10.42-7.55,15.2-2.51,3.9-4.85,7.28-5.06,12.05-.07,1.7,1.44,2.89,3,3,4.31.31,8.6.74,12.86,1.41,1.99.31,8.6.48,9.46,2.91l4.41-3.39-.2-.1c-.9-.44-2.14-.65-3.03,0-1.68,1.23-10.46-2.67-12.03-3.56-2.43-1.37-4.2-2.99-4.28-5.87-.06-2.22.68-4.19.43-6.44l-5.12,2.12c2.49,2.54,1.92,6.98,4.44,9.84,1.75,1.98,5.14.38,5.12-2.12-.03-3.51-.06-7.02-.09-10.53l-5.59,1.51c2.41,3.66,3.4,8.32,4.73,12.47,1.17,3.67,6.73,2.17,5.79-1.6-1.41-5.59-4.12-12.27-3.76-18.04l-4.51,2.59c5.14,3.01,6.73,13.79,7.6,19.15.63,3.84,6.31,2.16,5.79-1.6-1.09-7.81-5.33-15.56-4.18-23.56l-4.41,1.79c2.43,1.56,3.17,6.91,3.78,9.54.78,3.33,1.26,6.7,1.54,10.11h6c-.4-2.99-.8-5.97-1.2-8.96-.26-1.96-1.93-6.92-.68-8.54l-5.48-.72c2.68,6.46,2.48,13.58,5.22,20.05,1.39,3.28,6.13.82,5.48-2.31-.83-3.99-1.69-7.99-2.17-12.04-.32-2.68.18-6-.53-8.57-1.26-4.55-6.77-3.57-10.54-3.79s-3.84,5.78,0,6c.47.03,6.84.85,4.65-1.06.59.52.3,6.38.42,7.41.52,4.59,1.44,9.11,2.38,13.63l5.48-2.31c-2.53-5.95-2.14-12.63-4.62-18.62-1.04-2.51-3.84-2.85-5.48-.72-1.83,2.37-.99,5.24-.62,7.99.56,4.18,1.12,8.36,1.68,12.54.5,3.71,6.33,3.92,6,0-.63-7.52-1.27-20.32-8.3-24.84-1.48-.95-4.13-.11-4.41,1.79-1.35,9.38,2.9,17.64,4.18,26.75l5.79-1.6c-1.19-7.29-3.43-18.67-10.36-22.74-2.06-1.21-4.37.37-4.51,2.59-.4,6.42,2.42,13.45,3.97,19.63l5.79-1.6c-1.5-4.69-2.6-9.74-5.33-13.9-1.58-2.41-5.62-1.58-5.59,1.51.03,3.51.06,7.02.09,10.53l5.12-2.12c-2.43-2.76-1.66-7-4.44-9.84-1.68-1.71-5.42-.55-5.12,2.12.41,3.69-1.28,6.94.15,10.59,1.12,2.84,3.51,5.01,6.07,6.58,3.36,2.05,7.32,3.13,11.12,4.03,2.58.61,5.24,1.58,7.57-.14h-3.03l.2.1c2.15,1.04,5.35-.72,4.41-3.39-1.44-4.07-4.78-5.44-8.81-6.25-6.36-1.28-12.83-2.01-19.29-2.47l3,3c.2-4.5,3.86-8.17,6.01-11.92,2.25-3.94,4.01-8.13,5.79-12.3,1.19-2.8-2.35-6.55-4.71-3.64-4,4.94-17.86,14.64-12.27,22.49,1.41,1.98,4.82,1.97,5.48-.72,1.65-6.67,4.79-12.41,9.57-17.36,2.46-2.55-.63-6.14-3.64-4.71-5.7,2.7-9.57,7.46-11.26,13.52h5.79c-.45-3.19,3.16-6.47,4.45-9.21,1.46-3.11-2.05-5.88-4.71-3.64-.54.45-3.54,3.62-3.89,3.63l2.89,2.2c.36.9.58-1,.49-1.81-.2-1.94-1.75-3.41-3.8-2.89l-.31.08c-1.53.39-2.57,2.16-2.1,3.69l.07.21c1.15,3.67,6.94,2.11,5.79-1.6h0Z"/>
    <path class="cls-2" d="M322.73,81.33c-1.92,7.2-6.15,16.57.86,22.29,2.98,2.43,6.98,3.51,10.53,4.79,2.39.86,4.27,1.89,6.44,3.19.82.49,1.22.81,2.1,1.08,1.09.33,1.27.73.73-.14l2.59-4.51c-3.47-.42-6.51-1.54-9.52-3.29l-3.03,5.18c3.89,2.07,7.78,4.13,11.68,6.19,1.74.92,3.83.12,4.41-1.79.49-1.6.42-2.91-.09-4.49-.43-1.34-2.11-3.03-1.89-4.43.51-3.17-3.65-5.46-5.48-2.31-.59,1.24-1.42,2.27-2.5,3.09l5.01,2.92c1.17-2.92,2.43-5.79,3.79-8.63,1.66-3.47-3.03-6.28-5.18-3.03-1.49,2.25-3.15,4.26-5.04,6.18l5.01,2.92c1.18-4.36,3.04-8.16,5.71-11.8l-5.18-3.03c-1.93,3.52-3.83,6.75-6.9,9.41l5.01,1.32c-.53-1.67,5.17-8.66,6.11-10.02,2.24-3.23-2.89-6.01-5.18-3.03-1.49,1.95-5.89,9.47-8.77,9.79l2.59,4.51c1.91-4.02,4.13-7.77,6.86-11.29l-4.71-3.64c-2.33,3.64-4.67,7.1-7.78,10.13l5.01,2.92c.89-4.14,2.57-7.4,5.53-10.45l-4.71-3.64c-2.53,3.98-5.6,7.4-9.36,10.26l4.41,3.39c1.97-4.69,4.53-9.01,7.54-13.11l-5.18-3.03c-2.42,3.83-5.07,7.38-8.08,10.77l5.01,2.92c.98-4.08,2.78-7.63,4.78-11.29,1.85-3.4-3.12-6.3-5.18-3.03-1.49,2.37-3.21,4.27-5.34,6.06l5.01,2.92c.5-2.23,1.27-4.12,2.49-6.07,2.1-3.35-2.93-6.05-5.18-3.03-.95,1.31-1.97,2.57-3.05,3.76l5.01,2.92c.51-1.31,1.15-2.55,1.93-3.71l-5.48-2.31c-.59,1.7-1.25,3.34-2,4.98l5.48,2.31,1.02-2.36-5.48-2.31-1.63,7.95,5.89.8.18-2.25c.28-3.49-4.91-3.9-5.89-.8-.29.92-.58,1.84-.87,2.76-.65,2.04,1.55,4.52,3.69,3.69,1.21-.47,2.01-.94,3.02-1.75,3.01-2.42-1.26-6.64-4.24-4.24l-.38.21,3.69,3.69c.29-.92.58-1.84.87-2.76l-5.89-.8-.18,2.25c-.27,3.35,5.22,4.11,5.89.8l1.63-7.95c.65-3.19-3.77-5.44-5.48-2.31-.78,1.43-1.13,2.24-1.63,3.79-1.02,3.18,4.05,5.43,5.48,2.31.97-2.1,1.84-4.22,2.6-6.41,1.15-3.29-3.76-5.14-5.48-2.31-1.02,1.67-1.8,3.34-2.54,5.15-1.14,2.78,3.12,5.09,5.01,2.92,1.4-1.61,2.71-3.27,3.99-4.98l-5.18-3.03c-1.48,2.36-2.48,4.77-3.1,7.5-.69,3.04,2.74,4.83,5.01,2.92,2.52-2.12,4.52-4.49,6.27-7.27l-5.18-3.03c-2.23,4.09-4.29,8.17-5.38,12.72-.66,2.75,2.93,5.27,5.01,2.92,3.34-3.76,6.34-7.73,9.02-11.98,2.1-3.33-2.95-6.07-5.18-3.03-3.34,4.55-5.96,9.35-8.14,14.54-.98,2.33,2.4,4.91,4.41,3.39,4.61-3.5,8.4-7.52,11.51-12.41,1.83-2.88-2.35-6.07-4.71-3.64-3.61,3.72-5.97,8.02-7.07,13.09-.62,2.87,2.79,5.08,5.01,2.92,3.46-3.37,6.12-7.3,8.72-11.35,1.8-2.81-2.6-6.35-4.71-3.64-3.05,3.93-5.67,8.01-7.8,12.5-.86,1.81.12,4.8,2.59,4.51,6.48-.74,10.32-8.03,13.95-12.77l-5.18-3.03c-2.53,3.65-8.22,9.87-6.71,14.64.71,2.25,3.29,2.81,5.01,1.32,3.42-2.96,5.68-6.69,7.84-10.62,1.9-3.46-2.94-6.09-5.18-3.03-2.95,4.03-5.01,8.42-6.31,13.24-.78,2.88,2.89,5.06,5.01,2.92,2.26-2.28,4.21-4.71,5.98-7.39l-5.18-3.03c-1.58,3.31-3.03,6.66-4.39,10.06-1.19,2.98,3.01,4.76,5.01,2.92,1.43-1.31,2.47-2.64,3.44-4.31l-5.48-2.31c-.24,1.49-.28,2.63.19,4.11.42,1.33,2.21,3.42,1.79,4.81l4.41-1.79c-3.89-2.06-7.79-4.12-11.68-6.19-3.4-1.81-6.38,3.23-3.03,5.18,3.96,2.3,8.02,3.56,12.55,4.11,2.3.28,3.69-2.74,2.59-4.51-1.25-2.02-3.29-2.31-5.21-3.44-2.75-1.61-5.48-2.67-8.52-3.77-3.61-1.3-9.05-2.4-9.27-7.19-.17-3.76,2-8.61,2.95-12.19s-4.79-5.33-5.79-1.6h0Z"/>
    <path class="cls-2" d="M358.75,126.43l.27-.4-4.71-3.64c-2.44,3.91-3.6,8.03-3.63,12.63-.02,3.16,3.96,3.83,5.59,1.51,2.22-3.14,3.69-6.49,4.55-10.23.79-3.44-3.52-5.02-5.48-2.31-.67,1.1-1.5,2.05-2.48,2.88h3.03c1.22.53.74-2.45.75-2.95.06-3.48-4.86-3.95-5.89-.8-2.58,7.88,14.1,4.95,17.42,4.49l-3.8-2.89c0,9.28-.87,19.15,3.83,27.54,1.65,2.95,6.46.97,5.48-2.31-1.46-4.92-2.76-9.72-2.69-14.9l-5.89.8c.86,3.01,1.32,6.05,1.07,9.19-.28,3.51-2.21,3.66-5.39,4.15l2.31,5.48c3.3-2.47,5.43-5.27,6.82-9.15,1.08-3.01-2.96-4.77-5.01-2.92-2.5,2.24-4.88,4.58-7.17,7.04l4.71,3.64c1.9-3.64,3.92-7.2,6.06-10.7s-2.9-5.99-5.18-3.03c-2.15,2.79-4.3,5.58-6.45,8.38l5.48,2.31c1.27-4.1,3.01-7.77,5.32-11.37l-5.18-3.03c-2.22,4.37-4.67,8.56-7.38,12.64l5.48,2.31c1.5-5.11,3.07-10.11,5.66-14.79l-5.48-2.31c-1.69,4.71-3.88,9.09-6.55,13.32l5.48,2.31c1.75-4.72,3.34-9.49,4.78-14.32,1.11-3.71-4.66-5.28-5.79-1.6-1.25,4.08-3.05,7.64-5.49,11.11l5.59,1.51c-.01-3.26.43-6.29,1.34-9.42,1.02-3.48-3.57-4.9-5.48-2.31-2.26,3.06-3.16,6.39-2.75,10.18s5.66,3.89,6,0c.23-2.63-.03-4.92-.79-7.44-.99-3.28-5.75-2.59-5.89.8-.24,5.62.35,11.08,1.76,16.52.39,1.52,2.16,2.58,3.69,2.1,6.78-2.16,7.65-11.1,8.1-17.2.5-6.72-.95-12.52-8.86-10.98l2.92,5.01c.85-1.34,2.1-1.97,3.73-1.9l-2.89-3.8-.93,1.3,2.92,5.01c1.12-1.4,2.02-2.06,3.81-2.49,3.75-.9,2.16-6.69-1.6-5.79-2.67.64-4.74,1.88-6.46,4.04s-.21,5.84,2.92,5.01c2.83-.75,4.69-2.53,5.12-5.49.27-1.83-.74-3.87-2.89-3.8-3.25.11-5.81,1.18-7.97,3.65-2.01,2.31-.06,5.6,2.92,5.01,2.54-.5,1,7.78.83,8.75-.38,2.2-.79,7.08-3.27,7.86l3.69,2.1c-1.28-4.94-1.77-9.83-1.55-14.93l-5.89.8c.61,2.01.76,3.76.58,5.85h6c-.31-2.83.23-4.86,1.93-7.15l-5.48-2.31c-1.07,3.65-1.57,7.21-1.56,11.01.01,3.15,3.94,3.85,5.59,1.51,2.73-3.88,4.71-8.02,6.1-12.55l-5.79-1.6c-1.44,4.83-3.03,9.6-4.78,14.32-1.22,3.3,3.74,5.08,5.48,2.31,2.95-4.67,5.29-9.56,7.15-14.75,1.16-3.22-3.85-5.25-5.48-2.31-2.85,5.12-4.62,10.62-6.27,16.22-.99,3.37,3.65,5.07,5.48,2.31,2.71-4.08,5.16-8.28,7.38-12.64,1.75-3.44-3.08-6.29-5.18-3.03-2.58,4.01-4.52,8.25-5.92,12.8-1.09,3.52,3.56,4.81,5.48,2.31,2.15-2.79,4.3-5.58,6.45-8.38l-5.18-3.03c-2.15,3.5-4.16,7.06-6.06,10.7-1.52,2.91,2.29,6.23,4.71,3.64,2.29-2.46,4.67-4.79,7.17-7.04l-5.01-2.92c-.83,2.32-2.08,4.08-4.06,5.56-2.78,2.07-1.12,6,2.31,5.48,3.78-.57,8.1-1.69,9.22-5.79,1.31-4.8.62-10.23-.72-14.93-.93-3.26-5.85-2.61-5.89.8-.08,5.7,1.3,11.06,2.91,16.49l5.48-2.31c-4.08-7.29-3-16.47-3.01-24.52,0-2.15-1.91-3.15-3.8-2.89-2.12.29-4.24.47-6.38.52h-1.8c-1.99-.65-2.61.14-1.86,2.37l-5.89-.8c-.04,2.82-.92,7.19,2.58,8.29s5.6-2.82,7.31-5.18l-5.48-2.31c-.75,3.27-2.01,6.06-3.95,8.8l5.59,1.51c.02-3.62.91-6.55,2.81-9.6,1.76-2.83-2.51-6.3-4.71-3.64-.84,1.02-1.31,1.83-1.81,3.05-1.47,3.57,4.33,5.12,5.79,1.6h0Z"/>
    <path class="cls-2" d="M376.16,90.8l.99-.67-4.51-2.59c.03,2.95.05,5.91.08,8.86.03,3.98,5.52,3.72,6,0,.56-4.33,2.22-8.32,4.9-11.77l-5.12-2.12c-.09,5.19-4.38,9.66-6.21,14.38-1.22,3.15,4,5.36,5.48,2.31,3.57-7.34,7.96-14.08,13.34-20.23l-4.71-3.64c-2.3,4.95-4.79,9.8-7.47,14.56l5.18,3.03c1.54-2.84,3.11-5.66,4.75-8.44.88-1.49,3.09-6.81,4.81-7.13l-3.69-3.69c-2.18,5.59-2.2,11.38-1.77,17.29.22,3.09.6,6.19.56,9.29-.03,2.48.15,3.27-1.57,4.94-1.2,1.17-2.99,1.83-4.56,2.2l3.39,4.41c3.74-5.53,7.2-11.11,8.35-17.78.52-3.05-4-5.67-5.48-2.31s-3.06,6.91-4.73,10.3c-1.17,2.36-3.56,8.94-6.09,10.02h3.03c.84.39,8.76-21.19,9.33-23.49.94-3.8-4.48-5.18-5.79-1.6-1.66,4.55-3.31,9.1-5.14,13.59-1.4,3.42-3.19,10.28-6.24,12.59l4.41,1.79c-.48-3.04,1.46-7.38,1.91-10.46s.64-6.09.65-9.17c.02-3.32-5.13-4.16-5.89-.8-1.24,5.47-1.99,10.97-2.27,16.57-.18,3.61,4.75,3.75,5.89.8,2.47-6.39,4.94-12.77,7.42-19.16,1.22-3.15-4.03-5.38-5.48-2.31-.64,1.35-1.29,2.71-1.93,4.06l5.48,2.31c.26-.95.52-1.9.78-2.85,1.02-3.73-4.77-5.32-5.79-1.6-.26.95-.52,1.9-.78,2.85-.87,3.18,3.99,5.46,5.48,2.31.64-1.35,1.29-2.71,1.93-4.06l-5.48-2.31c-2.47,6.39-4.94,12.77-7.42,19.16l5.89.8c.25-5.07.93-10.02,2.05-14.97l-5.89-.8c-.02,4.16-.38,8.23-1.31,12.3-.74,3.21-1.55,5.63-1.03,8.92.28,1.78,2.96,2.89,4.41,1.79,4.03-3.05,5.72-8.43,7.65-12.95,2.36-5.53,4.43-11.17,6.49-16.82l-5.79-1.6c-1.6,6.46-4.47,12.38-7,18.5-1.34,3.25-4.32,8.6-.45,11.35s6.78-2.06,8.45-4.86c3.27-5.5,5.85-11.36,8.43-17.2l-5.48-2.31c-1.06,6.18-4.29,11.23-7.74,16.35-1.54,2.28,1,4.97,3.39,4.41,2.9-.68,5.56-2.16,7.79-4.17,2.41-2.18,2.65-4.65,2.73-7.83.21-8.78-2.29-17.42,1.02-25.91.91-2.33-1.69-4.06-3.69-3.69-3.18.59-4.55,3.57-6.12,6.11-2.47,4-4.79,8.08-7.03,12.22-1.83,3.39,3.28,6.4,5.18,3.03,2.68-4.76,5.16-9.61,7.47-14.56,1.33-2.86-2.3-6.39-4.71-3.64-5.7,6.53-10.49,13.65-14.28,21.45l5.48,2.31c2.16-5.57,6.32-9.71,6.42-15.98.04-2.38-3.47-4.24-5.12-2.12-3.76,4.84-5.87,9.93-6.66,16.01h6c-.03-2.95-.05-5.91-.08-8.86-.02-2.16-2.58-3.9-4.51-2.59l-.99.67c-3.19,2.15-.19,7.35,3.03,5.18h0Z"/>
  </g>
</svg>